<?xml version="1.0" encoding="iso-8859-1"?>
<!-- Uploaded to: SVG Repo, www.svgrepo.com, Generator: SVG Repo Mixer Tools -->
<svg fill="#000000" height="800px" width="800px" version="1.1" id="Layer_1" xmlns="http://www.w3.org/2000/svg" xmlns:xlink="http://www.w3.org/1999/xlink" 
	 viewBox="0 0 512 512" xml:space="preserve">
<g>
	<g>
		<path d="M457.259,135.415c-23.987-4.548-41.993-22.554-46.541-46.541c-0.384-2.031-2.074-3.541-4.139-3.541H105.421
			c-2.065,0-3.755,1.51-4.139,3.541c-4.548,23.987-22.554,41.993-46.541,46.541c-2.031,0.384-3.541,2.074-3.541,4.139v96.35
			c0,2.074,1.51,3.763,3.541,4.147c23.987,4.548,41.993,22.554,46.541,46.541c0.384,2.031,2.074,3.541,4.139,3.541h301.15
			c2.065,0,3.755-1.51,4.139-3.541c4.548-23.987,22.554-41.993,46.541-46.541c2.039-0.384,3.55-2.074,3.55-4.139v-96.358
			C460.8,137.489,459.29,135.799,457.259,135.415z M340.139,202.189c-5.837,35.328-34.321,63.821-69.649,69.675
			c-58.308,9.651-108.254-40.277-98.628-98.594c5.837-35.328,34.321-63.821,69.649-69.675
			C299.819,93.943,349.773,143.872,340.139,202.189z"/>
	</g>
</g>
<g>
	<g>
		<path d="M503.467,34.133H8.533C3.814,34.133,0,37.956,0,42.667v435.2h512v-435.2C512,37.956,508.186,34.133,503.467,34.133z
			 M34.133,128c0-4.71,3.814-8.533,8.533-8.533c24.721,0,42.667-17.946,42.667-42.667c0-4.71,3.814-8.533,8.533-8.533h324.267
			c4.719,0,8.533,3.823,8.533,8.533c0,24.721,17.946,42.667,42.667,42.667c4.719,0,8.533,3.823,8.533,8.533v119.467
			c0,4.71-3.814,8.533-8.533,8.533c-24.721,0-42.667,17.946-42.667,42.667c0,4.71-3.814,8.533-8.533,8.533H93.867
			c-4.719,0-8.533-3.823-8.533-8.533c0-24.721-17.946-42.667-42.667-42.667c-4.719,0-8.533-3.823-8.533-8.533V128z M494.933,460.8
			H17.067v-17.067h477.867V460.8z M494.933,426.667H17.067V409.6h477.867V426.667z M494.933,392.533H17.067v-17.067h477.867V392.533
			z M494.933,358.4H17.067v-17.067h477.867V358.4z"/>
	</g>
</g>
<g>
	<g>
		<path d="M256,119.467c-37.641,0-68.267,30.626-68.267,68.267C187.733,225.374,218.359,256,256,256
			c37.641,0,68.267-30.626,68.267-68.267C324.267,150.093,293.641,119.467,256,119.467z M290.193,207.42
			c-0.956,11.145-11.145,19.55-25.668,22.118v0.862c0,4.71-3.814,8.533-8.533,8.533c-4.719,0-8.533-3.823-8.533-8.533v-0.367
			c-10.394-0.93-16.546-3.917-23.185-10.743c-3.285-3.379-3.208-8.781,0.171-12.066c3.379-3.285,8.772-3.208,12.066,0.171
			c4.002,4.113,6.34,5.931,19.362,5.948c11.128-0.213,17.101-4.838,17.314-7.381c0.171-1.929-4.318-7.057-18.739-9.839
			c-21.641-1.357-31.241-13.628-31.061-25.455c0.154-10.726,8.474-21.606,24.081-24.687v-0.913c0-4.71,3.814-8.533,8.533-8.533
			c4.719,0,8.533,3.823,8.533,8.533v0.478c10.94,1.195,18.628,4.83,23.748,11.281c2.935,3.695,2.313,9.062-1.374,11.989
			c-1.579,1.246-3.439,1.852-5.299,1.852c-2.517,0-5.009-1.101-6.69-3.226c-1.041-1.314-4.207-5.291-18.85-5.299
			c-10.684,0.137-15.565,5.222-15.625,8.789c-0.051,3.78,5.393,7.842,15.915,8.286c0.222,0.009,1.033,0.102,1.246,0.145
			C289.553,185.489,290.628,202.385,290.193,207.42z"/>
	</g>
</g>
</svg>